<svg width="15" height="15" viewBox="0 0 15 15" fill="none" xmlns="http://www.w3.org/2000/svg">
<g id="bx-user 1">
<path id="Vector" d="M7.5 1.25C6.88193 1.25 6.27775 1.43328 5.76384 1.77666C5.24994 2.12004 4.8494 2.6081 4.61288 3.17911C4.37635 3.75013 4.31447 4.37847 4.43505 4.98466C4.55562 5.59085 4.85325 6.14767 5.29029 6.58471C5.72733 7.02175 6.28415 7.31938 6.89034 7.43995C7.49653 7.56053 8.12487 7.49865 8.69589 7.26212C9.2669 7.0256 9.75496 6.62506 10.0983 6.11116C10.4417 5.59725 10.625 4.99307 10.625 4.375C10.625 3.5462 10.2958 2.75134 9.70971 2.16529C9.12366 1.57924 8.3288 1.25 7.5 1.25ZM7.5 6.25C7.12916 6.25 6.76665 6.14003 6.45831 5.93401C6.14996 5.72798 5.90964 5.43514 5.76773 5.09253C5.62581 4.74992 5.58868 4.37292 5.66103 4.00921C5.73337 3.64549 5.91195 3.3114 6.17417 3.04917C6.4364 2.78695 6.77049 2.60838 7.13421 2.53603C7.49792 2.46368 7.87492 2.50081 8.21753 2.64273C8.56014 2.78464 8.85298 3.02496 9.05901 3.33331C9.26503 3.64165 9.375 4.00416 9.375 4.375C9.375 4.87228 9.17746 5.34919 8.82583 5.70083C8.47419 6.05246 7.99728 6.25 7.5 6.25ZM13.125 13.125V12.5C13.125 11.3397 12.6641 10.2269 11.8436 9.40641C11.0231 8.58594 9.91032 8.125 8.75 8.125H6.25C5.08968 8.125 3.97688 8.58594 3.15641 9.40641C2.33594 10.2269 1.875 11.3397 1.875 12.5V13.125H3.125V12.5C3.125 11.6712 3.45424 10.8763 4.04029 10.2903C4.62634 9.70424 5.4212 9.375 6.25 9.375H8.75C9.5788 9.375 10.3737 9.70424 10.9597 10.2903C11.5458 10.8763 11.875 11.6712 11.875 12.5V13.125H13.125Z" fill="#EFEDFF"/>
</g>
</svg>
