<svg width="42" height="40" viewBox="0 0 42 40" fill="none" xmlns="http://www.w3.org/2000/svg">
<g id="inbox">
<rect id="Rectangle 4" width="42" height="40" rx="15" fill="#EFEDFF"/>
<path id="Vector" d="M29 11H13C11.897 11 11 11.897 11 13V27C11 27.5304 11.2107 28.0391 11.5858 28.4142C11.9609 28.7893 12.4696 29 13 29H29C29.5304 29 30.0391 28.7893 30.4142 28.4142C30.7893 28.0391 31 27.5304 31 27V13C31 11.897 30.103 11 29 11ZM28 20H24.858C24.412 21.722 22.861 23 21 23C19.139 23 17.588 21.722 17.142 20H13V13H29V20H28Z" fill="#2A2B6A"/>
<path id="Vector_2" d="M31.0007 6.83337C28.7032 6.83337 26.834 8.70254 26.834 11C26.834 13.2975 28.7032 15.1667 31.0007 15.1667C33.2982 15.1667 35.1673 13.2975 35.1673 11C35.1673 8.70254 33.2982 6.83337 31.0007 6.83337Z" fill="#8A79FF"/>
</g>
</svg>
