<svg width="18" height="14" viewBox="0 0 18 14" fill="none" xmlns="http://www.w3.org/2000/svg">
<path id="Vector" d="M14.8337 4.05798H13.167V6.69958H10.667V8.46065H13.167V11.1023H14.8337V8.46065H17.3337V6.69958H14.8337V4.05798ZM2.33366 4.05798C2.3234 4.52348 2.4026 4.98634 2.56648 5.41857C2.73037 5.8508 2.97552 6.24341 3.28712 6.57265C3.59872 6.9019 3.97028 7.16094 4.37934 7.3341C4.7884 7.50727 5.22645 7.59096 5.66699 7.58012C6.10754 7.59096 6.54559 7.50727 6.95465 7.3341C7.3637 7.16094 7.73527 6.9019 8.04687 6.57265C8.35846 6.24341 8.60362 5.8508 8.7675 5.41857C8.93138 4.98634 9.01059 4.52348 9.00033 4.05798C9.01059 3.59248 8.93138 3.12962 8.7675 2.69739C8.60362 2.26517 8.35846 1.87256 8.04687 1.54331C7.73527 1.21406 7.3637 0.955024 6.95465 0.781859C6.54559 0.608694 6.10754 0.525002 5.66699 0.535846C5.22645 0.525002 4.7884 0.608694 4.37934 0.781859C3.97028 0.955024 3.59872 1.21406 3.28712 1.54331C2.97552 1.87256 2.73037 2.26517 2.56648 2.69739C2.4026 3.12962 2.3234 3.59248 2.33366 4.05798ZM7.33366 4.05798C7.34438 4.29225 7.3086 4.52629 7.22864 4.74508C7.14867 4.96387 7.02628 5.16257 6.86933 5.32842C6.71237 5.49426 6.52432 5.62359 6.31726 5.70808C6.1102 5.79258 5.8887 5.83037 5.66699 5.81905C5.44528 5.83037 5.22378 5.79258 5.01672 5.70808C4.80966 5.62359 4.62161 5.49426 4.46466 5.32842C4.3077 5.16257 4.18531 4.96387 4.10535 4.74508C4.02538 4.52629 3.98961 4.29225 4.00033 4.05798C3.98961 3.82372 4.02538 3.58967 4.10535 3.37088C4.18531 3.15209 4.3077 2.95339 4.46466 2.78755C4.62161 2.6217 4.80966 2.49238 5.01672 2.40788C5.22378 2.32339 5.44528 2.28559 5.66699 2.29691C5.8887 2.28559 6.1102 2.32339 6.31726 2.40788C6.52432 2.49238 6.71237 2.6217 6.86933 2.78755C7.02628 2.95339 7.14867 3.15209 7.22864 3.37088C7.3086 3.58967 7.34438 3.82372 7.33366 4.05798ZM2.33366 12.8633C2.33366 12.1627 2.59705 11.4908 3.06589 10.9954C3.53473 10.5 4.17062 10.2217 4.83366 10.2217H6.50033C7.16337 10.2217 7.79925 10.5 8.26809 10.9954C8.73693 11.4908 9.00033 12.1627 9.00033 12.8633V13.7439H10.667V12.8633C10.667 12.2852 10.5592 11.7126 10.3498 11.1785C10.1404 10.6443 9.83351 10.159 9.4466 9.75016C9.05969 9.34134 8.60036 9.01704 8.09484 8.79578C7.58932 8.57453 7.0475 8.46065 6.50033 8.46065H4.83366C3.72859 8.46065 2.66878 8.9245 1.88738 9.75016C1.10598 10.5758 0.666992 11.6957 0.666992 12.8633V13.7439H2.33366V12.8633Z" fill="white"/>
</svg>
