<svg width="30" height="30" viewBox="0 0 30 30" fill="none" xmlns="http://www.w3.org/2000/svg">
<g id="phone">
<rect id="search" width="30" height="30" rx="10" fill="#EFEDFF"/>
<path id="Vector" d="M22.0727 19.731L18.6852 16.4765C18.5251 16.3228 18.3147 16.2407 18.0984 16.2478C17.8821 16.2549 17.6769 16.3505 17.5261 16.5144L15.5319 18.6814C15.0519 18.5845 14.0869 18.2667 13.0936 17.2197C12.1002 16.1692 11.7994 15.1469 11.7102 14.6433L13.7594 12.5353C13.9147 12.376 14.0053 12.1591 14.012 11.9305C14.0187 11.7019 13.941 11.4796 13.7952 11.3105L10.7161 7.73196C10.5703 7.56234 10.3676 7.45944 10.1512 7.44514C9.93476 7.43084 9.72157 7.50625 9.5569 7.65536L7.74857 9.29403C7.60449 9.44682 7.5185 9.65016 7.5069 9.8655C7.4944 10.0856 7.25607 15.3002 11.0827 19.3453C14.4211 22.8719 18.6027 23.1299 19.7544 23.1299C19.9227 23.1299 20.0261 23.1246 20.0536 23.1228C20.2573 23.1108 20.4497 23.0195 20.5936 22.8666L22.1436 20.9549C22.2852 20.7815 22.3571 20.5564 22.3439 20.3277C22.3307 20.0991 22.2334 19.8849 22.0727 19.731Z" fill="#161616" fill-opacity="0.25"/>
</g>
</svg>
