<svg width="408" height="40" viewBox="0 0 408 40" fill="none" xmlns="http://www.w3.org/2000/svg">
<rect x="0.5" y="0.5" width="41" height="39" rx="14.5" fill="#EFEDFF" stroke="#696969"/>
<path d="M21 18.5664C18.8207 18.5664 17 16.6832 17 14.3115C17 11.9398 18.8207 10.0566 21 10.0566C23.1793 10.0566 25 11.9398 25 14.3115C25 16.6832 23.1793 18.5664 21 18.5664ZM29.5 28.5762V29.1328H29H12.5V28.5762C12.5 24.7484 15.4418 21.6797 19 21.6797H23C26.5573 21.6797 29.5 24.7484 29.5 28.5762Z" fill="#EFEDFF" stroke="#696969"/>
<rect x="65.5" y="0.5" width="41" height="39" rx="14.5" fill="#EFEDFF" stroke="#8B4513"/>
<path d="M86 18.5664C83.8207 18.5664 82 16.6832 82 14.3115C82 11.9398 83.8207 10.0566 86 10.0566C88.1793 10.0566 90 11.9398 90 14.3115C90 16.6832 88.1793 18.5664 86 18.5664ZM94.5 28.5762V29.1328H94H77.5V28.5762C77.5 24.7484 80.4418 21.6797 84 21.6797H88C91.5573 21.6797 94.5 24.7484 94.5 28.5762Z" fill="#EFEDFF" stroke="#8B4513"/>
<rect x="130.5" y="0.5" width="41" height="39" rx="14.5" fill="#EFEDFF" stroke="#FF00FF"/>
<path d="M151 18.5664C148.821 18.5664 147 16.6832 147 14.3115C147 11.9398 148.821 10.0566 151 10.0566C153.179 10.0566 155 11.9398 155 14.3115C155 16.6832 153.179 18.5664 151 18.5664ZM159.5 28.5762V29.1328H159H142.5V28.5762C142.5 24.7484 145.442 21.6797 149 21.6797H153C156.557 21.6797 159.5 24.7484 159.5 28.5762Z" fill="#EFEDFF" stroke="#FF00FF"/>
<rect x="195.5" y="0.5" width="41" height="39" rx="14.5" fill="#EFEDFF" stroke="#008080"/>
<path d="M216 18.5664C213.821 18.5664 212 16.6832 212 14.3115C212 11.9398 213.821 10.0566 216 10.0566C218.179 10.0566 220 11.9398 220 14.3115C220 16.6832 218.179 18.5664 216 18.5664ZM224.5 28.5762V29.1328H224H207.5V28.5762C207.5 24.7484 210.442 21.6797 214 21.6797H218C221.557 21.6797 224.5 24.7484 224.5 28.5762Z" fill="#EFEDFF" stroke="#008080"/>
<rect x="260.5" y="0.5" width="41" height="39" rx="14.5" fill="#EFEDFF" stroke="#800080"/>
<path d="M281 19.5664C278.821 19.5664 277 17.6832 277 15.3115C277 12.9398 278.821 11.0566 281 11.0566C283.179 11.0566 285 12.9398 285 15.3115C285 17.6832 283.179 19.5664 281 19.5664ZM289.5 29.5762V30.1328H289H272.5V29.5762C272.5 25.7484 275.442 22.6797 279 22.6797H283C286.557 22.6797 289.5 25.7484 289.5 29.5762Z" fill="#EFEDFF" stroke="#800080"/>
<rect x="325.5" y="0.5" width="41" height="39" rx="14.5" fill="#EFEDFF" stroke="#808000"/>
<path d="M346 19.5664C343.821 19.5664 342 17.6832 342 15.3115C342 12.9398 343.821 11.0566 346 11.0566C348.179 11.0566 350 12.9398 350 15.3115C350 17.6832 348.179 19.5664 346 19.5664ZM354.5 29.5762V30.1328H354H337.5V29.5762C337.5 25.7484 340.442 22.6797 344 22.6797H348C351.557 22.6797 354.5 25.7484 354.5 29.5762Z" fill="#EFEDFF" stroke="#808000"/>
<mask id="path-13-inside-1_279_900" fill="white">
<path d="M390 15C390 6.71573 396.716 0 405 0H408V40H405C396.716 40 390 33.2843 390 25V15Z"/>
</mask>
<path d="M390 15C390 6.71573 396.716 0 405 0H408V40H405C396.716 40 390 33.2843 390 25V15Z" fill="#EFEDFF"/>
<path d="M389 15C389 6.16344 396.163 -1 405 -1H408V1H405C397.268 1 391 7.26801 391 15H389ZM408 41H405C396.163 41 389 33.8366 389 25H391C391 32.732 397.268 39 405 39H408V41ZM405 41C396.163 41 389 33.8366 389 25V15C389 6.16344 396.163 -1 405 -1V1C397.268 1 391 7.26801 391 15V25C391 32.732 397.268 39 405 39V41ZM408 0V40V0Z" fill="#013220" mask="url(#path-13-inside-1_279_900)"/>
</svg>
