<svg width="18" height="16" viewBox="0 0 18 16" fill="none" xmlns="http://www.w3.org/2000/svg">
<path id="s-icon" d="M7.85174 13.3333C9.49524 13.333 11.0914 12.8379 12.386 11.9267L16.4564 15.59L17.7656 14.4117L13.6953 10.7483C14.7082 9.58305 15.2588 8.1462 15.2592 6.66667C15.2592 2.99083 11.936 0 7.85174 0C3.76748 0 0.444336 2.99083 0.444336 6.66667C0.444336 10.3425 3.76748 13.3333 7.85174 13.3333ZM7.85174 1.66667C10.9156 1.66667 13.4073 3.90917 13.4073 6.66667C13.4073 9.42417 10.9156 11.6667 7.85174 11.6667C4.78785 11.6667 2.29619 9.42417 2.29619 6.66667C2.29619 3.90917 4.78785 1.66667 7.85174 1.66667Z" fill="#EFEDFF"/>
</svg>
